<mxfile host="app.diagrams.net" agent="Mozilla/5.0 (Windows NT 10.0; Win64; x64) AppleWebKit/537.36 (KHTML, like Gecko) Chrome/127.0.0.0 Safari/537.36" version="24.7.7" pages="5">
  <diagram id="V6yUUOdaCW8T9A2_j1Fj" name="Entidades">
    <mxGraphModel dx="954" dy="598" grid="1" gridSize="10" guides="1" tooltips="1" connect="1" arrows="1" fold="1" page="1" pageScale="1" pageWidth="850" pageHeight="1100" math="0" shadow="0">
      <root>
        <mxCell id="0" />
        <mxCell id="1" parent="0" />
        <mxCell id="tc4jSCTvQgpj3JNOLFlb-1" value="Cliente (entidade genérica)" style="swimlane;fontStyle=0;childLayout=stackLayout;horizontal=1;startSize=30;horizontalStack=0;resizeParent=1;resizeParentMax=0;resizeLast=0;collapsible=1;marginBottom=0;whiteSpace=wrap;html=1;fillColor=#1ba1e2;strokeColor=#006EAF;fontColor=#ffffff;" parent="1" vertex="1">
          <mxGeometry x="40" y="40" width="160" height="150" as="geometry">
            <mxRectangle x="80" y="40" width="180" height="30" as="alternateBounds" />
          </mxGeometry>
        </mxCell>
        <mxCell id="tc4jSCTvQgpj3JNOLFlb-2" value="id: ?" style="text;strokeColor=#006EAF;fillColor=#1ba1e2;align=left;verticalAlign=middle;spacingLeft=4;spacingRight=4;overflow=hidden;points=[[0,0.5],[1,0.5]];portConstraint=eastwest;rotatable=0;whiteSpace=wrap;html=1;fontColor=#ffffff;" parent="tc4jSCTvQgpj3JNOLFlb-1" vertex="1">
          <mxGeometry y="30" width="160" height="30" as="geometry" />
        </mxCell>
        <mxCell id="tc4jSCTvQgpj3JNOLFlb-3" value="nome: &lt;font color=&quot;#00cc00&quot;&gt;String&lt;/font&gt;" style="text;strokeColor=none;fillColor=none;align=left;verticalAlign=middle;spacingLeft=4;spacingRight=4;overflow=hidden;points=[[0,0.5],[1,0.5]];portConstraint=eastwest;rotatable=0;whiteSpace=wrap;html=1;" parent="tc4jSCTvQgpj3JNOLFlb-1" vertex="1">
          <mxGeometry y="60" width="160" height="30" as="geometry" />
        </mxCell>
        <mxCell id="tc4jSCTvQgpj3JNOLFlb-4" value="telefone: &lt;font color=&quot;#00cc00&quot;&gt;String&lt;/font&gt;" style="text;strokeColor=none;fillColor=none;align=left;verticalAlign=middle;spacingLeft=4;spacingRight=4;overflow=hidden;points=[[0,0.5],[1,0.5]];portConstraint=eastwest;rotatable=0;whiteSpace=wrap;html=1;" parent="tc4jSCTvQgpj3JNOLFlb-1" vertex="1">
          <mxGeometry y="90" width="160" height="30" as="geometry" />
        </mxCell>
        <mxCell id="tc4jSCTvQgpj3JNOLFlb-5" value="senha: &lt;font color=&quot;#00cc00&quot;&gt;String&lt;/font&gt;" style="text;strokeColor=none;fillColor=none;align=left;verticalAlign=middle;spacingLeft=4;spacingRight=4;overflow=hidden;points=[[0,0.5],[1,0.5]];portConstraint=eastwest;rotatable=0;whiteSpace=wrap;html=1;" parent="tc4jSCTvQgpj3JNOLFlb-1" vertex="1">
          <mxGeometry y="120" width="160" height="30" as="geometry" />
        </mxCell>
        <mxCell id="LetqOh_EFlkE1FTumEbc-1" value="Horário" style="swimlane;fontStyle=0;childLayout=stackLayout;horizontal=1;startSize=30;horizontalStack=0;resizeParent=1;resizeParentMax=0;resizeLast=0;collapsible=1;marginBottom=0;whiteSpace=wrap;html=1;fillColor=#e3c800;strokeColor=#B09500;fontColor=#000000;" vertex="1" parent="1">
          <mxGeometry x="700" y="40" width="140" height="180" as="geometry" />
        </mxCell>
        <mxCell id="LetqOh_EFlkE1FTumEbc-2" value="id: Primary key (&lt;font&gt;dias&lt;/font&gt;,&amp;nbsp;&lt;font&gt;horaInicio, horaFim)&lt;/font&gt;" style="text;strokeColor=#B09500;fillColor=#e3c800;align=left;verticalAlign=middle;spacingLeft=4;spacingRight=4;overflow=hidden;points=[[0,0.5],[1,0.5]];portConstraint=eastwest;rotatable=0;whiteSpace=wrap;html=1;fontColor=#000000;" vertex="1" parent="LetqOh_EFlkE1FTumEbc-1">
          <mxGeometry y="30" width="140" height="60" as="geometry" />
        </mxCell>
        <mxCell id="LetqOh_EFlkE1FTumEbc-3" value="dias: &lt;font color=&quot;#ff0080&quot;&gt;Array&amp;lt;&lt;/font&gt;&lt;font color=&quot;#0000ff&quot;&gt;Number&lt;/font&gt;&lt;font color=&quot;#ff0080&quot;&gt;&amp;gt;&lt;/font&gt;" style="text;strokeColor=none;fillColor=none;align=left;verticalAlign=middle;spacingLeft=4;spacingRight=4;overflow=hidden;points=[[0,0.5],[1,0.5]];portConstraint=eastwest;rotatable=0;whiteSpace=wrap;html=1;" vertex="1" parent="LetqOh_EFlkE1FTumEbc-1">
          <mxGeometry y="90" width="140" height="30" as="geometry" />
        </mxCell>
        <mxCell id="LetqOh_EFlkE1FTumEbc-4" value="horaInicio: &lt;font color=&quot;#ff8000&quot;&gt;Date&lt;/font&gt;" style="text;strokeColor=none;fillColor=none;align=left;verticalAlign=middle;spacingLeft=4;spacingRight=4;overflow=hidden;points=[[0,0.5],[1,0.5]];portConstraint=eastwest;rotatable=0;whiteSpace=wrap;html=1;" vertex="1" parent="LetqOh_EFlkE1FTumEbc-1">
          <mxGeometry y="120" width="140" height="30" as="geometry" />
        </mxCell>
        <mxCell id="LetqOh_EFlkE1FTumEbc-5" value="horaFim: &lt;font color=&quot;#ff8000&quot;&gt;Date&lt;/font&gt;" style="text;strokeColor=none;fillColor=none;align=left;verticalAlign=middle;spacingLeft=4;spacingRight=4;overflow=hidden;points=[[0,0.5],[1,0.5]];portConstraint=eastwest;rotatable=0;whiteSpace=wrap;html=1;" vertex="1" parent="LetqOh_EFlkE1FTumEbc-1">
          <mxGeometry y="150" width="140" height="30" as="geometry" />
        </mxCell>
        <mxCell id="PYFmkdbSyUhTta54iJ9U-1" value="Agendamento" style="swimlane;fontStyle=0;childLayout=stackLayout;horizontal=1;startSize=30;horizontalStack=0;resizeParent=1;resizeParentMax=0;resizeLast=0;collapsible=1;marginBottom=0;whiteSpace=wrap;html=1;fillColor=#60a917;fontColor=#ffffff;strokeColor=#2D7600;" vertex="1" parent="1">
          <mxGeometry x="310" y="40" width="140" height="180" as="geometry" />
        </mxCell>
        <mxCell id="PYFmkdbSyUhTta54iJ9U-2" value="id: number" style="text;strokeColor=#2D7600;fillColor=#60a917;align=left;verticalAlign=middle;spacingLeft=4;spacingRight=4;overflow=hidden;points=[[0,0.5],[1,0.5]];portConstraint=eastwest;rotatable=0;whiteSpace=wrap;html=1;fontColor=#ffffff;" vertex="1" parent="PYFmkdbSyUhTta54iJ9U-1">
          <mxGeometry y="30" width="140" height="30" as="geometry" />
        </mxCell>
        <mxCell id="PYFmkdbSyUhTta54iJ9U-3" value="clienteId: ?" style="text;strokeColor=#006EAF;fillColor=#1ba1e2;align=left;verticalAlign=middle;spacingLeft=4;spacingRight=4;overflow=hidden;points=[[0,0.5],[1,0.5]];portConstraint=eastwest;rotatable=0;whiteSpace=wrap;html=1;fontColor=#ffffff;" vertex="1" parent="PYFmkdbSyUhTta54iJ9U-1">
          <mxGeometry y="60" width="140" height="30" as="geometry" />
        </mxCell>
        <mxCell id="PYFmkdbSyUhTta54iJ9U-4" value="dataMarcada: &lt;font color=&quot;#ff8000&quot;&gt;Date&lt;/font&gt;" style="text;strokeColor=none;fillColor=none;align=left;verticalAlign=middle;spacingLeft=4;spacingRight=4;overflow=hidden;points=[[0,0.5],[1,0.5]];portConstraint=eastwest;rotatable=0;whiteSpace=wrap;html=1;fontColor=#000000;" vertex="1" parent="PYFmkdbSyUhTta54iJ9U-1">
          <mxGeometry y="90" width="140" height="30" as="geometry" />
        </mxCell>
        <mxCell id="PYFmkdbSyUhTta54iJ9U-5" value="horaInicio: &lt;font color=&quot;#ff8000&quot;&gt;Date&lt;/font&gt;" style="text;strokeColor=none;fillColor=none;align=left;verticalAlign=middle;spacingLeft=4;spacingRight=4;overflow=hidden;points=[[0,0.5],[1,0.5]];portConstraint=eastwest;rotatable=0;whiteSpace=wrap;html=1;" vertex="1" parent="PYFmkdbSyUhTta54iJ9U-1">
          <mxGeometry y="120" width="140" height="30" as="geometry" />
        </mxCell>
        <mxCell id="PYFmkdbSyUhTta54iJ9U-6" value="horaFim: &lt;font color=&quot;#ff8000&quot;&gt;Date&lt;/font&gt;" style="text;strokeColor=none;fillColor=none;align=left;verticalAlign=middle;spacingLeft=4;spacingRight=4;overflow=hidden;points=[[0,0.5],[1,0.5]];portConstraint=eastwest;rotatable=0;whiteSpace=wrap;html=1;" vertex="1" parent="PYFmkdbSyUhTta54iJ9U-1">
          <mxGeometry y="150" width="140" height="30" as="geometry" />
        </mxCell>
        <mxCell id="PYFmkdbSyUhTta54iJ9U-7" style="edgeStyle=orthogonalEdgeStyle;rounded=0;orthogonalLoop=1;jettySize=auto;html=1;exitX=1;exitY=0.5;exitDx=0;exitDy=0;entryX=0;entryY=0.5;entryDx=0;entryDy=0;" edge="1" parent="1" source="tc4jSCTvQgpj3JNOLFlb-2" target="PYFmkdbSyUhTta54iJ9U-3">
          <mxGeometry relative="1" as="geometry" />
        </mxCell>
        <mxCell id="cP0Y6su8tSfl4RE-W3tm-4" style="edgeStyle=orthogonalEdgeStyle;rounded=0;orthogonalLoop=1;jettySize=auto;html=1;exitX=0;exitY=0.25;exitDx=0;exitDy=0;entryX=1;entryY=0.5;entryDx=0;entryDy=0;" edge="1" parent="1" source="cP0Y6su8tSfl4RE-W3tm-2" target="PYFmkdbSyUhTta54iJ9U-5">
          <mxGeometry relative="1" as="geometry" />
        </mxCell>
        <mxCell id="cP0Y6su8tSfl4RE-W3tm-6" style="edgeStyle=orthogonalEdgeStyle;rounded=0;orthogonalLoop=1;jettySize=auto;html=1;exitX=0;exitY=0.75;exitDx=0;exitDy=0;entryX=1;entryY=0.5;entryDx=0;entryDy=0;" edge="1" parent="1" source="cP0Y6su8tSfl4RE-W3tm-2" target="PYFmkdbSyUhTta54iJ9U-6">
          <mxGeometry relative="1" as="geometry" />
        </mxCell>
        <mxCell id="cP0Y6su8tSfl4RE-W3tm-2" value="Conversão de valor numérico para &lt;font color=&quot;#ff8000&quot;&gt;Date&lt;/font&gt;" style="rounded=0;whiteSpace=wrap;html=1;" vertex="1" parent="1">
          <mxGeometry x="520" y="160" width="120" height="60" as="geometry" />
        </mxCell>
        <mxCell id="cP0Y6su8tSfl4RE-W3tm-3" style="edgeStyle=orthogonalEdgeStyle;rounded=0;orthogonalLoop=1;jettySize=auto;html=1;exitX=0;exitY=0.5;exitDx=0;exitDy=0;entryX=1;entryY=0.25;entryDx=0;entryDy=0;" edge="1" parent="1" source="LetqOh_EFlkE1FTumEbc-4" target="cP0Y6su8tSfl4RE-W3tm-2">
          <mxGeometry relative="1" as="geometry" />
        </mxCell>
        <mxCell id="cP0Y6su8tSfl4RE-W3tm-7" style="edgeStyle=orthogonalEdgeStyle;rounded=0;orthogonalLoop=1;jettySize=auto;html=1;exitX=0;exitY=0.5;exitDx=0;exitDy=0;entryX=1;entryY=0.75;entryDx=0;entryDy=0;" edge="1" parent="1" source="LetqOh_EFlkE1FTumEbc-5" target="cP0Y6su8tSfl4RE-W3tm-2">
          <mxGeometry relative="1" as="geometry" />
        </mxCell>
        <mxCell id="cP0Y6su8tSfl4RE-W3tm-8" value="Funcionamento entre entidades" style="text;html=1;align=center;verticalAlign=middle;whiteSpace=wrap;rounded=0;" vertex="1" parent="1">
          <mxGeometry x="280" y="290" width="290" height="30" as="geometry" />
        </mxCell>
      </root>
    </mxGraphModel>
  </diagram>
  <diagram id="KSlai-0bCWbzieldwt5Y" name="Introdução do Cliente">
    <mxGraphModel dx="954" dy="598" grid="1" gridSize="10" guides="1" tooltips="1" connect="1" arrows="1" fold="1" page="1" pageScale="1" pageWidth="850" pageHeight="1100" math="0" shadow="0">
      <root>
        <mxCell id="0" />
        <mxCell id="1" parent="0" />
        <mxCell id="LdC9OCB9tAdvN-OjRd1j-1" style="edgeStyle=orthogonalEdgeStyle;rounded=0;orthogonalLoop=1;jettySize=auto;html=1;exitX=1;exitY=0.25;exitDx=0;exitDy=0;entryX=0;entryY=0.5;entryDx=0;entryDy=0;" parent="1" edge="1">
          <mxGeometry relative="1" as="geometry">
            <mxPoint x="267.5" y="240" as="sourcePoint" />
            <mxPoint x="347.5" y="220" as="targetPoint" />
          </mxGeometry>
        </mxCell>
        <mxCell id="LdC9OCB9tAdvN-OjRd1j-2" style="edgeStyle=orthogonalEdgeStyle;rounded=0;orthogonalLoop=1;jettySize=auto;html=1;exitX=1;exitY=0.75;exitDx=0;exitDy=0;entryX=0;entryY=0.5;entryDx=0;entryDy=0;" parent="1" source="LdC9OCB9tAdvN-OjRd1j-4" target="LdC9OCB9tAdvN-OjRd1j-8" edge="1">
          <mxGeometry relative="1" as="geometry" />
        </mxCell>
        <mxCell id="LdC9OCB9tAdvN-OjRd1j-3" style="edgeStyle=orthogonalEdgeStyle;rounded=0;orthogonalLoop=1;jettySize=auto;html=1;exitX=1;exitY=0.25;exitDx=0;exitDy=0;entryX=0;entryY=0.5;entryDx=0;entryDy=0;" parent="1" source="LdC9OCB9tAdvN-OjRd1j-4" target="LdC9OCB9tAdvN-OjRd1j-6" edge="1">
          <mxGeometry relative="1" as="geometry" />
        </mxCell>
        <mxCell id="LdC9OCB9tAdvN-OjRd1j-4" value="Plataforma" style="whiteSpace=wrap;html=1;aspect=fixed;fillColor=#1ba1e2;strokeColor=#006EAF;fontColor=#ffffff;" parent="1" vertex="1">
          <mxGeometry x="40" y="280" width="80" height="80" as="geometry" />
        </mxCell>
        <mxCell id="LdC9OCB9tAdvN-OjRd1j-5" style="edgeStyle=orthogonalEdgeStyle;rounded=0;orthogonalLoop=1;jettySize=auto;html=1;exitX=1;exitY=0.5;exitDx=0;exitDy=0;entryX=0;entryY=0.5;entryDx=0;entryDy=0;" parent="1" source="LdC9OCB9tAdvN-OjRd1j-6" target="LdC9OCB9tAdvN-OjRd1j-10" edge="1">
          <mxGeometry relative="1" as="geometry" />
        </mxCell>
        <mxCell id="LdC9OCB9tAdvN-OjRd1j-6" value="Administrador" style="whiteSpace=wrap;html=1;aspect=fixed;fillColor=#e51400;strokeColor=#B20000;fontColor=#ffffff;" parent="1" vertex="1">
          <mxGeometry x="200" y="240" width="80" height="80" as="geometry" />
        </mxCell>
        <mxCell id="LdC9OCB9tAdvN-OjRd1j-7" style="edgeStyle=orthogonalEdgeStyle;rounded=0;orthogonalLoop=1;jettySize=auto;html=1;exitX=1;exitY=0.5;exitDx=0;exitDy=0;entryX=0;entryY=0.5;entryDx=0;entryDy=0;" parent="1" source="LdC9OCB9tAdvN-OjRd1j-8" target="LdC9OCB9tAdvN-OjRd1j-14" edge="1">
          <mxGeometry relative="1" as="geometry" />
        </mxCell>
        <mxCell id="LdC9OCB9tAdvN-OjRd1j-8" value="Cliente" style="whiteSpace=wrap;html=1;aspect=fixed;fillColor=#1ba1e2;strokeColor=#006EAF;fontColor=#ffffff;" parent="1" vertex="1">
          <mxGeometry x="200" y="320" width="80" height="80" as="geometry" />
        </mxCell>
        <mxCell id="LdC9OCB9tAdvN-OjRd1j-9" style="edgeStyle=orthogonalEdgeStyle;rounded=0;orthogonalLoop=1;jettySize=auto;html=1;exitX=1;exitY=0.5;exitDx=0;exitDy=0;entryX=0;entryY=0.25;entryDx=0;entryDy=0;" parent="1" source="LdC9OCB9tAdvN-OjRd1j-10" target="LdC9OCB9tAdvN-OjRd1j-19" edge="1">
          <mxGeometry relative="1" as="geometry" />
        </mxCell>
        <mxCell id="LdC9OCB9tAdvN-OjRd1j-10" value="Plataforma (gerenciamento)" style="whiteSpace=wrap;html=1;aspect=fixed;fillColor=#a20025;strokeColor=#6F0000;fontColor=#ffffff;" parent="1" vertex="1">
          <mxGeometry x="360" y="200" width="80" height="80" as="geometry" />
        </mxCell>
        <mxCell id="LdC9OCB9tAdvN-OjRd1j-11" style="edgeStyle=orthogonalEdgeStyle;rounded=0;orthogonalLoop=1;jettySize=auto;html=1;exitX=0.5;exitY=1;exitDx=0;exitDy=0;entryX=0.5;entryY=0;entryDx=0;entryDy=0;" parent="1" source="LdC9OCB9tAdvN-OjRd1j-12" target="LdC9OCB9tAdvN-OjRd1j-4" edge="1">
          <mxGeometry relative="1" as="geometry" />
        </mxCell>
        <mxCell id="LdC9OCB9tAdvN-OjRd1j-12" value="Homepage" style="whiteSpace=wrap;html=1;aspect=fixed;fillColor=#d80073;strokeColor=#A50040;fontColor=#ffffff;" parent="1" vertex="1">
          <mxGeometry x="80" y="160" width="80" height="80" as="geometry" />
        </mxCell>
        <mxCell id="LdC9OCB9tAdvN-OjRd1j-13" style="edgeStyle=orthogonalEdgeStyle;rounded=0;orthogonalLoop=1;jettySize=auto;html=1;exitX=1;exitY=0.5;exitDx=0;exitDy=0;entryX=0;entryY=0.25;entryDx=0;entryDy=0;" parent="1" source="LdC9OCB9tAdvN-OjRd1j-14" target="LdC9OCB9tAdvN-OjRd1j-15" edge="1">
          <mxGeometry relative="1" as="geometry" />
        </mxCell>
        <mxCell id="LdC9OCB9tAdvN-OjRd1j-14" value="Plataforma&lt;div&gt;(cliente)&lt;/div&gt;" style="whiteSpace=wrap;html=1;aspect=fixed;fillColor=#a20025;strokeColor=#6F0000;fontColor=#ffffff;" parent="1" vertex="1">
          <mxGeometry x="360" y="360" width="80" height="80" as="geometry" />
        </mxCell>
        <mxCell id="LdC9OCB9tAdvN-OjRd1j-15" value="Permissões" style="swimlane;fontStyle=0;childLayout=stackLayout;horizontal=1;startSize=30;horizontalStack=0;resizeParent=1;resizeParentMax=0;resizeLast=0;collapsible=1;marginBottom=0;whiteSpace=wrap;html=1;fillColor=#008a00;strokeColor=#005700;fontColor=#ffffff;" parent="1" vertex="1">
          <mxGeometry x="480" y="320" width="200" height="120" as="geometry" />
        </mxCell>
        <mxCell id="LdC9OCB9tAdvN-OjRd1j-16" value="Criar agendamento: &lt;font color=&quot;#ff6666&quot;&gt;1 por conta&lt;/font&gt;" style="text;strokeColor=none;fillColor=none;align=left;verticalAlign=middle;spacingLeft=4;spacingRight=4;overflow=hidden;points=[[0,0.5],[1,0.5]];portConstraint=eastwest;rotatable=0;whiteSpace=wrap;html=1;" parent="LdC9OCB9tAdvN-OjRd1j-15" vertex="1">
          <mxGeometry y="30" width="200" height="30" as="geometry" />
        </mxCell>
        <mxCell id="LdC9OCB9tAdvN-OjRd1j-17" value="Deletar agendamento: &lt;font color=&quot;#ff6666&quot;&gt;próprio&lt;/font&gt;" style="text;strokeColor=none;fillColor=none;align=left;verticalAlign=middle;spacingLeft=4;spacingRight=4;overflow=hidden;points=[[0,0.5],[1,0.5]];portConstraint=eastwest;rotatable=0;whiteSpace=wrap;html=1;" parent="LdC9OCB9tAdvN-OjRd1j-15" vertex="1">
          <mxGeometry y="60" width="200" height="30" as="geometry" />
        </mxCell>
        <mxCell id="LdC9OCB9tAdvN-OjRd1j-18" value="Pesquisar agendamentos: &lt;font color=&quot;#ff6666&quot;&gt;próprio&lt;/font&gt;" style="text;strokeColor=none;fillColor=none;align=left;verticalAlign=middle;spacingLeft=4;spacingRight=4;overflow=hidden;points=[[0,0.5],[1,0.5]];portConstraint=eastwest;rotatable=0;whiteSpace=wrap;html=1;" parent="LdC9OCB9tAdvN-OjRd1j-15" vertex="1">
          <mxGeometry y="90" width="200" height="30" as="geometry" />
        </mxCell>
        <mxCell id="LdC9OCB9tAdvN-OjRd1j-19" value="Permissões" style="swimlane;fontStyle=0;childLayout=stackLayout;horizontal=1;startSize=30;horizontalStack=0;resizeParent=1;resizeParentMax=0;resizeLast=0;collapsible=1;marginBottom=0;whiteSpace=wrap;html=1;fillColor=#008a00;strokeColor=#005700;fontColor=#ffffff;" parent="1" vertex="1">
          <mxGeometry x="480" y="160" width="200" height="120" as="geometry" />
        </mxCell>
        <mxCell id="LdC9OCB9tAdvN-OjRd1j-20" value="Criar agendamento: &lt;font color=&quot;#ff6666&quot;&gt;sem limite&lt;/font&gt;" style="text;strokeColor=none;fillColor=none;align=left;verticalAlign=middle;spacingLeft=4;spacingRight=4;overflow=hidden;points=[[0,0.5],[1,0.5]];portConstraint=eastwest;rotatable=0;whiteSpace=wrap;html=1;" parent="LdC9OCB9tAdvN-OjRd1j-19" vertex="1">
          <mxGeometry y="30" width="200" height="30" as="geometry" />
        </mxCell>
        <mxCell id="LdC9OCB9tAdvN-OjRd1j-21" value="Deletar agendamento: &lt;font color=&quot;#ff6666&quot;&gt;qualquer&lt;/font&gt;" style="text;strokeColor=none;fillColor=none;align=left;verticalAlign=middle;spacingLeft=4;spacingRight=4;overflow=hidden;points=[[0,0.5],[1,0.5]];portConstraint=eastwest;rotatable=0;whiteSpace=wrap;html=1;" parent="LdC9OCB9tAdvN-OjRd1j-19" vertex="1">
          <mxGeometry y="60" width="200" height="30" as="geometry" />
        </mxCell>
        <mxCell id="LdC9OCB9tAdvN-OjRd1j-22" value="Pesquisar agendamentos: &lt;font color=&quot;#ff6666&quot;&gt;qualquer&lt;/font&gt;" style="text;strokeColor=none;fillColor=none;align=left;verticalAlign=middle;spacingLeft=4;spacingRight=4;overflow=hidden;points=[[0,0.5],[1,0.5]];portConstraint=eastwest;rotatable=0;whiteSpace=wrap;html=1;" parent="LdC9OCB9tAdvN-OjRd1j-19" vertex="1">
          <mxGeometry y="90" width="200" height="30" as="geometry" />
        </mxCell>
        <mxCell id="LdC9OCB9tAdvN-OjRd1j-23" value="&lt;span style=&quot;font-size: 18px;&quot;&gt;Introdução do Cliente à plataforma&lt;/span&gt;" style="text;html=1;align=center;verticalAlign=middle;whiteSpace=wrap;rounded=0;" parent="1" vertex="1">
          <mxGeometry x="265" y="470" width="320" height="30" as="geometry" />
        </mxCell>
        <mxCell id="LdC9OCB9tAdvN-OjRd1j-24" style="edgeStyle=orthogonalEdgeStyle;rounded=0;orthogonalLoop=1;jettySize=auto;html=1;exitX=0.5;exitY=0.5;exitDx=0;exitDy=0;exitPerimeter=0;entryX=1;entryY=0.5;entryDx=0;entryDy=0;strokeColor=none;curved=1;" parent="1" source="LdC9OCB9tAdvN-OjRd1j-26" target="LdC9OCB9tAdvN-OjRd1j-12" edge="1">
          <mxGeometry relative="1" as="geometry" />
        </mxCell>
        <mxCell id="LdC9OCB9tAdvN-OjRd1j-25" style="edgeStyle=orthogonalEdgeStyle;rounded=0;orthogonalLoop=1;jettySize=auto;html=1;exitX=0.5;exitY=0.5;exitDx=0;exitDy=0;exitPerimeter=0;entryX=1;entryY=0.5;entryDx=0;entryDy=0;curved=1;" parent="1" source="LdC9OCB9tAdvN-OjRd1j-26" target="LdC9OCB9tAdvN-OjRd1j-12" edge="1">
          <mxGeometry relative="1" as="geometry">
            <Array as="points">
              <mxPoint x="200" y="100" />
              <mxPoint x="200" y="150" />
              <mxPoint x="180" y="150" />
              <mxPoint x="180" y="200" />
            </Array>
          </mxGeometry>
        </mxCell>
        <mxCell id="LdC9OCB9tAdvN-OjRd1j-26" value="Cliente" style="shape=umlActor;verticalLabelPosition=bottom;verticalAlign=top;html=1;outlineConnect=0;fillColor=#1ba1e2;strokeColor=#006EAF;fontColor=#ffffff;" parent="1" vertex="1">
          <mxGeometry x="150" y="70" width="30" height="60" as="geometry" />
        </mxCell>
        <mxCell id="LdC9OCB9tAdvN-OjRd1j-27" style="edgeStyle=orthogonalEdgeStyle;rounded=0;orthogonalLoop=1;jettySize=auto;html=1;exitX=0.5;exitY=0.5;exitDx=0;exitDy=0;exitPerimeter=0;entryX=0;entryY=0.5;entryDx=0;entryDy=0;curved=1;" parent="1" source="LdC9OCB9tAdvN-OjRd1j-28" target="LdC9OCB9tAdvN-OjRd1j-12" edge="1">
          <mxGeometry relative="1" as="geometry">
            <Array as="points">
              <mxPoint x="95" y="120" />
              <mxPoint x="50" y="120" />
              <mxPoint x="50" y="200" />
            </Array>
          </mxGeometry>
        </mxCell>
        <mxCell id="LdC9OCB9tAdvN-OjRd1j-28" value="Administrador" style="shape=umlActor;verticalLabelPosition=bottom;verticalAlign=top;html=1;outlineConnect=0;fillColor=#e51400;strokeColor=#B20000;fontColor=#ffffff;" parent="1" vertex="1">
          <mxGeometry x="80" y="70" width="30" height="60" as="geometry" />
        </mxCell>
        <mxCell id="LdC9OCB9tAdvN-OjRd1j-29" style="edgeStyle=orthogonalEdgeStyle;rounded=0;orthogonalLoop=1;jettySize=auto;html=1;exitX=0.5;exitY=0.5;exitDx=0;exitDy=0;exitPerimeter=0;entryX=1;entryY=0.25;entryDx=0;entryDy=0;curved=1;" parent="1" source="LdC9OCB9tAdvN-OjRd1j-30" target="LdC9OCB9tAdvN-OjRd1j-12" edge="1">
          <mxGeometry relative="1" as="geometry">
            <Array as="points">
              <mxPoint x="210" y="70" />
              <mxPoint x="210" y="180" />
            </Array>
          </mxGeometry>
        </mxCell>
        <mxCell id="LdC9OCB9tAdvN-OjRd1j-30" value="Cliente" style="shape=umlActor;verticalLabelPosition=bottom;verticalAlign=top;html=1;outlineConnect=0;fillColor=#1ba1e2;strokeColor=#006EAF;fontColor=#ffffff;" parent="1" vertex="1">
          <mxGeometry x="120" y="40" width="30" height="60" as="geometry" />
        </mxCell>
        <mxCell id="LdC9OCB9tAdvN-OjRd1j-31" value="(Entrar)" style="text;html=1;align=center;verticalAlign=middle;whiteSpace=wrap;rounded=0;" parent="1" vertex="1">
          <mxGeometry x="130" y="305" width="60" height="30" as="geometry" />
        </mxCell>
      </root>
    </mxGraphModel>
  </diagram>
  <diagram name="Cliente" id="2M44Bz8UGk6qDKzF_dQ0">
    <mxGraphModel dx="954" dy="598" grid="1" gridSize="10" guides="1" tooltips="1" connect="1" arrows="1" fold="1" page="1" pageScale="1" pageWidth="850" pageHeight="1100" math="0" shadow="0">
      <root>
        <mxCell id="0" />
        <mxCell id="1" parent="0" />
        <mxCell id="LylX9zbcLAFgVE6ZFsXF-1" value="Cliente (entidade genérica)" style="swimlane;fontStyle=0;childLayout=stackLayout;horizontal=1;startSize=30;horizontalStack=0;resizeParent=1;resizeParentMax=0;resizeLast=0;collapsible=1;marginBottom=0;whiteSpace=wrap;html=1;fillColor=#1ba1e2;strokeColor=#006EAF;fontColor=#ffffff;" parent="1" vertex="1">
          <mxGeometry x="345" y="40" width="160" height="150" as="geometry">
            <mxRectangle x="80" y="40" width="180" height="30" as="alternateBounds" />
          </mxGeometry>
        </mxCell>
        <mxCell id="LylX9zbcLAFgVE6ZFsXF-2" value="id: ?" style="text;strokeColor=#006EAF;fillColor=#1ba1e2;align=left;verticalAlign=middle;spacingLeft=4;spacingRight=4;overflow=hidden;points=[[0,0.5],[1,0.5]];portConstraint=eastwest;rotatable=0;whiteSpace=wrap;html=1;fontColor=#ffffff;" parent="LylX9zbcLAFgVE6ZFsXF-1" vertex="1">
          <mxGeometry y="30" width="160" height="30" as="geometry" />
        </mxCell>
        <mxCell id="LylX9zbcLAFgVE6ZFsXF-3" value="nome: &lt;font color=&quot;#00cc00&quot;&gt;string&lt;/font&gt;" style="text;strokeColor=none;fillColor=none;align=left;verticalAlign=middle;spacingLeft=4;spacingRight=4;overflow=hidden;points=[[0,0.5],[1,0.5]];portConstraint=eastwest;rotatable=0;whiteSpace=wrap;html=1;" parent="LylX9zbcLAFgVE6ZFsXF-1" vertex="1">
          <mxGeometry y="60" width="160" height="30" as="geometry" />
        </mxCell>
        <mxCell id="aF-8tXZumrQb8vTRycgZ-1" value="telefone:&amp;nbsp;&lt;span style=&quot;color: rgb(0, 204, 0);&quot;&gt;string&lt;/span&gt;" style="text;strokeColor=none;fillColor=none;align=left;verticalAlign=middle;spacingLeft=4;spacingRight=4;overflow=hidden;points=[[0,0.5],[1,0.5]];portConstraint=eastwest;rotatable=0;whiteSpace=wrap;html=1;" parent="LylX9zbcLAFgVE6ZFsXF-1" vertex="1">
          <mxGeometry y="90" width="160" height="30" as="geometry" />
        </mxCell>
        <mxCell id="VIodcbzYWIunQg-uV8ju-2" value="senha:&amp;nbsp;&lt;span style=&quot;color: rgb(0, 204, 0);&quot;&gt;string&lt;/span&gt;" style="text;strokeColor=none;fillColor=none;align=left;verticalAlign=middle;spacingLeft=4;spacingRight=4;overflow=hidden;points=[[0,0.5],[1,0.5]];portConstraint=eastwest;rotatable=0;whiteSpace=wrap;html=1;" parent="LylX9zbcLAFgVE6ZFsXF-1" vertex="1">
          <mxGeometry y="120" width="160" height="30" as="geometry" />
        </mxCell>
        <mxCell id="LylX9zbcLAFgVE6ZFsXF-7" value="&lt;h1 style=&quot;text-align: justify; margin-top: 0px;&quot;&gt;&lt;span style=&quot;background-color: initial;&quot;&gt;Cliente&lt;/span&gt;&lt;/h1&gt;&lt;h1 style=&quot;text-align: justify; margin-top: 0px;&quot;&gt;&lt;span style=&quot;font-size: 18px; background-color: initial; font-weight: normal;&quot;&gt;Entidade relacionada ao usuário comum; &lt;/span&gt;&lt;font style=&quot;font-size: 18px; background-color: initial; font-weight: normal;&quot; color=&quot;#007fff&quot;&gt;id&lt;/font&gt;&lt;span style=&quot;font-size: 18px; background-color: initial; font-weight: normal;&quot;&gt;, como chave primária, deve ser&amp;nbsp;relacionado à tabela de agendamento.&amp;nbsp;&lt;/span&gt;&lt;br&gt;&lt;/h1&gt;" style="text;html=1;whiteSpace=wrap;overflow=hidden;rounded=0;" parent="1" vertex="1">
          <mxGeometry x="255" y="210" width="340" height="210" as="geometry" />
        </mxCell>
        <mxCell id="LylX9zbcLAFgVE6ZFsXF-8" value="" style="shape=umlActor;verticalLabelPosition=bottom;verticalAlign=top;html=1;outlineConnect=0;fillColor=#1ba1e2;strokeColor=#006EAF;fontColor=#ffffff;" parent="1" vertex="1">
          <mxGeometry x="240" y="40" width="80" height="160" as="geometry" />
        </mxCell>
      </root>
    </mxGraphModel>
  </diagram>
  <diagram id="1Een7BtDL1kP3a1VA70e" name="Horário">
    <mxGraphModel dx="954" dy="598" grid="1" gridSize="10" guides="1" tooltips="1" connect="1" arrows="1" fold="1" page="1" pageScale="1" pageWidth="850" pageHeight="1100" math="0" shadow="0">
      <root>
        <mxCell id="0" />
        <mxCell id="1" parent="0" />
        <mxCell id="fGEmDVrY2mE-6M2TTzy3-1" value="Horário" style="swimlane;fontStyle=0;childLayout=stackLayout;horizontal=1;startSize=30;horizontalStack=0;resizeParent=1;resizeParentMax=0;resizeLast=0;collapsible=1;marginBottom=0;whiteSpace=wrap;html=1;fillColor=#e3c800;strokeColor=#B09500;fontColor=#000000;" parent="1" vertex="1">
          <mxGeometry x="355" y="40" width="140" height="240" as="geometry" />
        </mxCell>
        <mxCell id="xz8s-Fwp6Zp-LCz0ueE0-1" value="id: Primary Key (&lt;font&gt;dias&lt;/font&gt;,&amp;nbsp;&lt;font&gt;horaInicio, horaFim)&lt;/font&gt;" style="text;strokeColor=#B09500;fillColor=#e3c800;align=left;verticalAlign=middle;spacingLeft=4;spacingRight=4;overflow=hidden;points=[[0,0.5],[1,0.5]];portConstraint=eastwest;rotatable=0;whiteSpace=wrap;html=1;fontColor=#000000;" parent="fGEmDVrY2mE-6M2TTzy3-1" vertex="1">
          <mxGeometry y="30" width="140" height="60" as="geometry" />
        </mxCell>
        <mxCell id="fGEmDVrY2mE-6M2TTzy3-3" value="dias: &lt;font color=&quot;#ff0080&quot;&gt;Array&amp;lt;&lt;/font&gt;&lt;font color=&quot;#0000ff&quot;&gt;number&lt;/font&gt;&lt;font color=&quot;#ff0080&quot;&gt;&amp;gt;&lt;/font&gt;" style="text;strokeColor=none;fillColor=none;align=left;verticalAlign=middle;spacingLeft=4;spacingRight=4;overflow=hidden;points=[[0,0.5],[1,0.5]];portConstraint=eastwest;rotatable=0;whiteSpace=wrap;html=1;" parent="fGEmDVrY2mE-6M2TTzy3-1" vertex="1">
          <mxGeometry y="90" width="140" height="30" as="geometry" />
        </mxCell>
        <mxCell id="fGEmDVrY2mE-6M2TTzy3-4" value="horaInicio: &lt;font color=&quot;#0000ff&quot;&gt;number&lt;/font&gt;" style="text;strokeColor=none;fillColor=none;align=left;verticalAlign=middle;spacingLeft=4;spacingRight=4;overflow=hidden;points=[[0,0.5],[1,0.5]];portConstraint=eastwest;rotatable=0;whiteSpace=wrap;html=1;" parent="fGEmDVrY2mE-6M2TTzy3-1" vertex="1">
          <mxGeometry y="120" width="140" height="30" as="geometry" />
        </mxCell>
        <mxCell id="2VDdvtW7vJIQSlTwhdAz-1" value="minutosInicio: &lt;font color=&quot;#0000ff&quot;&gt;number&lt;/font&gt;" style="text;strokeColor=none;fillColor=none;align=left;verticalAlign=middle;spacingLeft=4;spacingRight=4;overflow=hidden;points=[[0,0.5],[1,0.5]];portConstraint=eastwest;rotatable=0;whiteSpace=wrap;html=1;" vertex="1" parent="fGEmDVrY2mE-6M2TTzy3-1">
          <mxGeometry y="150" width="140" height="30" as="geometry" />
        </mxCell>
        <mxCell id="uqs4xCukzR3hPNULW7Ux-1" value="horaFim:&amp;nbsp;&lt;span style=&quot;color: rgb(0, 0, 255);&quot;&gt;number&lt;/span&gt;" style="text;strokeColor=none;fillColor=none;align=left;verticalAlign=middle;spacingLeft=4;spacingRight=4;overflow=hidden;points=[[0,0.5],[1,0.5]];portConstraint=eastwest;rotatable=0;whiteSpace=wrap;html=1;" parent="fGEmDVrY2mE-6M2TTzy3-1" vertex="1">
          <mxGeometry y="180" width="140" height="30" as="geometry" />
        </mxCell>
        <mxCell id="2VDdvtW7vJIQSlTwhdAz-2" value="minutosFim:&amp;nbsp;&lt;span style=&quot;color: rgb(0, 0, 255);&quot;&gt;number&lt;/span&gt;" style="text;strokeColor=none;fillColor=none;align=left;verticalAlign=middle;spacingLeft=4;spacingRight=4;overflow=hidden;points=[[0,0.5],[1,0.5]];portConstraint=eastwest;rotatable=0;whiteSpace=wrap;html=1;" vertex="1" parent="fGEmDVrY2mE-6M2TTzy3-1">
          <mxGeometry y="210" width="140" height="30" as="geometry" />
        </mxCell>
        <mxCell id="6Q44iTvEutHWMOAkzwkh-1" value="&lt;h1 style=&quot;text-align: justify; margin-top: 0px;&quot;&gt;&lt;span style=&quot;background-color: initial;&quot;&gt;Horário&lt;/span&gt;&lt;/h1&gt;&lt;h1 style=&quot;text-align: justify; margin-top: 0px;&quot;&gt;&lt;span style=&quot;font-size: 18px; background-color: initial; font-weight: normal;&quot;&gt;Entidade associada a um conjunto de 7 iterações na sua tabela do banco de dados. Tabela independente que relacion seus dados das colunas&amp;nbsp;&lt;font color=&quot;#0000ff&quot;&gt;horaInicio&lt;/font&gt;,&lt;font color=&quot;#0000ff&quot;&gt; minutosInicio&lt;/font&gt;, &lt;font color=&quot;#0000ff&quot;&gt;horaFim&lt;/font&gt; e &lt;font color=&quot;#0000ff&quot;&gt;minutosFim&lt;/font&gt;&amp;nbsp;à tabela de &lt;font color=&quot;#00cc00&quot;&gt;Agendamento&lt;/font&gt;.&lt;/span&gt;&lt;br&gt;&lt;/h1&gt;" style="text;html=1;whiteSpace=wrap;overflow=hidden;rounded=0;" parent="1" vertex="1">
          <mxGeometry x="255" y="280" width="335" height="230" as="geometry" />
        </mxCell>
      </root>
    </mxGraphModel>
  </diagram>
  <diagram id="pIyV6AC5n3BznHecZqJL" name="Agendamento">
    <mxGraphModel dx="954" dy="598" grid="1" gridSize="10" guides="1" tooltips="1" connect="1" arrows="1" fold="1" page="1" pageScale="1" pageWidth="850" pageHeight="1100" math="0" shadow="0">
      <root>
        <mxCell id="0" />
        <mxCell id="1" parent="0" />
        <mxCell id="qmqsHRwD6BpDxoH8wPGy-1" value="Agendamento" style="swimlane;fontStyle=0;childLayout=stackLayout;horizontal=1;startSize=30;horizontalStack=0;resizeParent=1;resizeParentMax=0;resizeLast=0;collapsible=1;marginBottom=0;whiteSpace=wrap;html=1;fillColor=#60a917;fontColor=#ffffff;strokeColor=#2D7600;" parent="1" vertex="1">
          <mxGeometry x="355" y="40" width="140" height="180" as="geometry" />
        </mxCell>
        <mxCell id="iCKDFiJyI7TfDemVfr8M-2" value="id: number" style="text;strokeColor=#2D7600;fillColor=#60a917;align=left;verticalAlign=middle;spacingLeft=4;spacingRight=4;overflow=hidden;points=[[0,0.5],[1,0.5]];portConstraint=eastwest;rotatable=0;whiteSpace=wrap;html=1;fontColor=#ffffff;" parent="qmqsHRwD6BpDxoH8wPGy-1" vertex="1">
          <mxGeometry y="30" width="140" height="30" as="geometry" />
        </mxCell>
        <mxCell id="qmqsHRwD6BpDxoH8wPGy-2" value="clienteId: ?" style="text;strokeColor=#006EAF;fillColor=#1ba1e2;align=left;verticalAlign=middle;spacingLeft=4;spacingRight=4;overflow=hidden;points=[[0,0.5],[1,0.5]];portConstraint=eastwest;rotatable=0;whiteSpace=wrap;html=1;fontColor=#ffffff;" parent="qmqsHRwD6BpDxoH8wPGy-1" vertex="1">
          <mxGeometry y="60" width="140" height="30" as="geometry" />
        </mxCell>
        <mxCell id="qmqsHRwD6BpDxoH8wPGy-3" value="dataDeferida: &lt;font color=&quot;#ff8000&quot;&gt;Date&lt;/font&gt;" style="text;strokeColor=none;fillColor=none;align=left;verticalAlign=middle;spacingLeft=4;spacingRight=4;overflow=hidden;points=[[0,0.5],[1,0.5]];portConstraint=eastwest;rotatable=0;whiteSpace=wrap;html=1;fontColor=#000000;" parent="qmqsHRwD6BpDxoH8wPGy-1" vertex="1">
          <mxGeometry y="90" width="140" height="30" as="geometry" />
        </mxCell>
        <mxCell id="qmqsHRwD6BpDxoH8wPGy-4" value="dataInicio: &lt;font color=&quot;#ff8000&quot;&gt;Date&lt;/font&gt;" style="text;strokeColor=none;fillColor=none;align=left;verticalAlign=middle;spacingLeft=4;spacingRight=4;overflow=hidden;points=[[0,0.5],[1,0.5]];portConstraint=eastwest;rotatable=0;whiteSpace=wrap;html=1;" parent="qmqsHRwD6BpDxoH8wPGy-1" vertex="1">
          <mxGeometry y="120" width="140" height="30" as="geometry" />
        </mxCell>
        <mxCell id="wH3x9pwxFUfzMhCZcSU_-1" value="dataFim: &lt;font color=&quot;#ff8000&quot;&gt;Date&lt;/font&gt;" style="text;strokeColor=none;fillColor=none;align=left;verticalAlign=middle;spacingLeft=4;spacingRight=4;overflow=hidden;points=[[0,0.5],[1,0.5]];portConstraint=eastwest;rotatable=0;whiteSpace=wrap;html=1;" parent="qmqsHRwD6BpDxoH8wPGy-1" vertex="1">
          <mxGeometry y="150" width="140" height="30" as="geometry" />
        </mxCell>
        <mxCell id="4YQnQkH07aBbjtAS--ms-1" value="&lt;h1 style=&quot;text-align: justify; margin-top: 0px;&quot;&gt;&lt;span style=&quot;background-color: initial;&quot;&gt;Agendamento&lt;/span&gt;&lt;/h1&gt;&lt;h1 style=&quot;text-align: justify; margin-top: 0px;&quot;&gt;&lt;span style=&quot;font-size: 18px; font-weight: 400;&quot;&gt;Tabela com linhas que representam uma hora marcada, apresentam a &lt;font color=&quot;#ff8000&quot;&gt;dataDeferida &lt;/font&gt;(inclui precisão de horas, minutos e segundos), a &lt;font color=&quot;#ff8000&quot;&gt;dataInício &lt;/font&gt;do corte, e a &lt;font color=&quot;#ff8000&quot;&gt;dataFim &lt;/font&gt;(incluem precisão de hora e minutos). As datas de início e fim partem da tabela de horário.&lt;/span&gt;&lt;/h1&gt;" style="text;html=1;whiteSpace=wrap;overflow=hidden;rounded=0;" vertex="1" parent="1">
          <mxGeometry x="255" y="230" width="335" height="250" as="geometry" />
        </mxCell>
      </root>
    </mxGraphModel>
  </diagram>
</mxfile>
